<svg viewBox="0 0 720 520" xmlns="http://www.w3.org/2000/svg" width="1440" height="1040">
<defs>
  <marker id="arr" markerWidth="6" markerHeight="6" refX="5" refY="3" orient="auto">
    <path d="M0,0 L6,3 L0,6 Z" fill="#888"/>
  </marker>
</defs>

<rect width="720" height="520" fill="#ffffff"/>

<!-- WIREFRAME FRAME -->
<rect x="20" y="20" width="500" height="460" rx="6" fill="#fff" stroke="#bbb" stroke-width="1.5"/>

<!-- 1. Top nav bar -->
<rect x="20" y="20" width="500" height="38" rx="6" fill="#e8e8e4" stroke="#bbb" stroke-width="1.5"/>
<rect x="20" y="44" width="500" height="14" fill="#e8e8e4"/>
<text x="35" y="42" font-size="10" fill="#555" font-family="Arial,sans-serif" font-weight="bold">Jobs Intelligence Austria</text>
<rect x="180" y="26" width="50" height="20" rx="3" fill="#c8c8c2" stroke="#aaa" stroke-width="1"/>
<text x="205" y="40" font-size="9" fill="#333" font-family="Arial,sans-serif" text-anchor="middle">Search</text>
<text x="255" y="40" font-size="9" fill="#888" font-family="Arial,sans-serif" text-anchor="middle">Saved jobs</text>
<text x="310" y="40" font-size="9" fill="#888" font-family="Arial,sans-serif" text-anchor="middle">Map</text>

<!-- 2. Filter bar -->
<rect x="20" y="58" width="500" height="52" fill="#f2f2ee" stroke="#bbb" stroke-width="1"/>
<rect x="20" y="96" width="500" height="14" fill="#f2f2ee"/>
<rect x="30" y="64" width="72" height="18" rx="3" fill="#fff" stroke="#ccc" stroke-width="1"/>
<text x="66" y="76" font-size="8" fill="#777" font-family="Arial,sans-serif" text-anchor="middle">Bundesland ▾</text>
<rect x="108" y="64" width="50" height="18" rx="3" fill="#fff" stroke="#ccc" stroke-width="1"/>
<text x="133" y="76" font-size="8" fill="#777" font-family="Arial,sans-serif" text-anchor="middle">Bezirk ▾</text>
<rect x="164" y="64" width="60" height="18" rx="3" fill="#fff" stroke="#ccc" stroke-width="1"/>
<text x="194" y="76" font-size="8" fill="#777" font-family="Arial,sans-serif" text-anchor="middle">Title / keywords</text>
<rect x="230" y="64" width="55" height="18" rx="3" fill="#fff" stroke="#ccc" stroke-width="1"/>
<text x="257" y="76" font-size="8" fill="#777" font-family="Arial,sans-serif" text-anchor="middle">Salary min–max</text>
<rect x="291" y="66" width="40" height="14" rx="7" fill="#d8eaff" stroke="#99c0f0" stroke-width="1"/>
<text x="311" y="76" font-size="7.5" fill="#1a56c4" font-family="Arial,sans-serif" text-anchor="middle">Full-time</text>
<rect x="336" y="66" width="38" height="14" rx="7" fill="#fff" stroke="#ccc" stroke-width="1"/>
<text x="355" y="76" font-size="7.5" fill="#888" font-family="Arial,sans-serif" text-anchor="middle">Part-time</text>
<rect x="380" y="66" width="42" height="14" rx="7" fill="#d8eaff" stroke="#99c0f0" stroke-width="1"/>
<text x="401" y="76" font-size="7.5" fill="#1a56c4" font-family="Arial,sans-serif" text-anchor="middle">Permanent</text>
<rect x="428" y="66" width="38" height="14" rx="7" fill="#fff" stroke="#ccc" stroke-width="1"/>
<text x="447" y="76" font-size="7.5" fill="#888" font-family="Arial,sans-serif" text-anchor="middle">Temporary</text>
<rect x="30" y="86" width="48" height="14" rx="7" fill="#d8eaff" stroke="#99c0f0" stroke-width="1"/>
<text x="54" y="96" font-size="7.5" fill="#1a56c4" font-family="Arial,sans-serif" text-anchor="middle">All agencies</text>
<rect x="84" y="86" width="54" height="14" rx="7" fill="#fff" stroke="#ccc" stroke-width="1"/>
<text x="111" y="96" font-size="7.5" fill="#888" font-family="Arial,sans-serif" text-anchor="middle">Excl. agencies</text>
<rect x="144" y="86" width="54" height="14" rx="7" fill="#fff" stroke="#ccc" stroke-width="1"/>
<text x="171" y="96" font-size="7.5" fill="#888" font-family="Arial,sans-serif" text-anchor="middle">Only agencies</text>

<!-- 3. Candidate input panel -->
<rect x="20" y="110" width="500" height="90" fill="#fff" stroke="#bbb" stroke-width="1"/>
<rect x="30" y="118" width="75" height="18" rx="3" fill="#d8eaff" stroke="#99c0f0" stroke-width="1"/>
<text x="67" y="130" font-size="8" fill="#1a56c4" font-family="Arial,sans-serif" text-anchor="middle">CV upload / paste</text>
<rect x="111" y="118" width="75" height="18" rx="3" fill="#fff" stroke="#ccc" stroke-width="1"/>
<text x="148" y="130" font-size="8" fill="#888" font-family="Arial,sans-serif" text-anchor="middle">Free-text description</text>
<rect x="192" y="118" width="60" height="18" rx="3" fill="#fff" stroke="#ccc" stroke-width="1"/>
<text x="222" y="130" font-size="8" fill="#888" font-family="Arial,sans-serif" text-anchor="middle">Guided query</text>
<rect x="30" y="142" width="380" height="32" rx="4" fill="#f8f8f4" stroke="#bbb" stroke-width="1" stroke-dasharray="4,3"/>
<text x="220" y="161" font-size="9" fill="#999" font-family="Arial,sans-serif" text-anchor="middle">Drop PDF CV here, or browse to upload — or paste CV text directly</text>
<rect x="30" y="182" width="75" height="18" rx="3" fill="#1a56c4" stroke="none"/>
<text x="67" y="194" font-size="9" fill="#fff" font-family="Arial,sans-serif" text-anchor="middle" font-weight="bold">Run matching</text>
<text x="120" y="194" font-size="8.5" fill="#888" font-family="Arial,sans-serif">Top</text>
<rect x="135" y="182" width="28" height="18" rx="3" fill="#f2f2ee" stroke="#ccc" stroke-width="1"/>
<text x="149" y="194" font-size="8.5" fill="#555" font-family="Arial,sans-serif" text-anchor="middle">20 ▾</text>
<text x="170" y="194" font-size="8.5" fill="#888" font-family="Arial,sans-serif">results</text>
<rect x="420" y="182" width="80" height="18" rx="3" fill="#fff" stroke="#ccc" stroke-width="1"/>
<text x="460" y="194" font-size="8.5" fill="#555" font-family="Arial,sans-serif" text-anchor="middle">Export to Excel</text>

<!-- 4. Results table header -->
<rect x="20" y="200" width="500" height="22" fill="#f2f2ee" stroke="#bbb" stroke-width="1"/>
<line x1="95" y1="200" x2="95" y2="480" stroke="#ddd" stroke-width="1"/>
<line x1="210" y1="200" x2="210" y2="480" stroke="#ddd" stroke-width="1"/>
<line x1="305" y1="200" x2="305" y2="480" stroke="#ddd" stroke-width="1"/>
<line x1="375" y1="200" x2="375" y2="480" stroke="#ddd" stroke-width="1"/>
<line x1="430" y1="200" x2="430" y2="480" stroke="#ddd" stroke-width="1"/>
<line x1="480" y1="200" x2="480" y2="480" stroke="#ddd" stroke-width="1"/>
<text x="32" y="215" font-size="8" fill="#666" font-family="Arial,sans-serif" font-weight="bold">Score</text>
<text x="130" y="215" font-size="8" fill="#666" font-family="Arial,sans-serif" font-weight="bold">Job title</text>
<text x="235" y="215" font-size="8" fill="#666" font-family="Arial,sans-serif" font-weight="bold">Company</text>
<text x="320" y="215" font-size="8" fill="#666" font-family="Arial,sans-serif" font-weight="bold">Location</text>
<text x="385" y="215" font-size="8" fill="#666" font-family="Arial,sans-serif" font-weight="bold">Salary</text>
<text x="440" y="215" font-size="8" fill="#666" font-family="Arial,sans-serif" font-weight="bold">Contract</text>
<text x="490" y="215" font-size="8" fill="#666" font-family="Arial,sans-serif" font-weight="bold">Link</text>

<!-- Result rows -->
<rect x="20" y="222" width="500" height="258" fill="#fff" stroke="#bbb" stroke-width="1"/>
<rect x="26" y="228" width="20" height="14" rx="3" fill="#e6f4ea"/>
<text x="36" y="239" font-size="8" fill="#1e7e34" font-family="Arial,sans-serif" text-anchor="middle" font-weight="bold">A</text>
<text x="52" y="239" font-size="8" fill="#888" font-family="Arial,sans-serif">91%</text>
<text x="100" y="239" font-size="8.5" fill="#222" font-family="Arial,sans-serif" font-weight="bold">Staplerfahrer Wien</text>
<text x="215" y="239" font-size="8.5" fill="#444" font-family="Arial,sans-serif">Dachser GmbH</text>
<text x="310" y="239" font-size="8.5" fill="#444" font-family="Arial,sans-serif">Wien, 10.</text>
<text x="380" y="239" font-size="8.5" fill="#444" font-family="Arial,sans-serif">€2,400</text>
<text x="435" y="239" font-size="8.5" fill="#444" font-family="Arial,sans-serif">Permanent</text>
<line x1="20" y1="246" x2="520" y2="246" stroke="#eee" stroke-width="1"/>
<rect x="26" y="251" width="20" height="14" rx="3" fill="#e6f4ea"/>
<text x="36" y="262" font-size="8" fill="#1e7e34" font-family="Arial,sans-serif" text-anchor="middle" font-weight="bold">A</text>
<text x="52" y="262" font-size="8" fill="#888" font-family="Arial,sans-serif">84%</text>
<text x="100" y="262" font-size="8.5" fill="#222" font-family="Arial,sans-serif" font-weight="bold">Lagerlogistiker</text>
<text x="215" y="262" font-size="8.5" fill="#444" font-family="Arial,sans-serif">Gebrüder Weiss</text>
<text x="310" y="262" font-size="8.5" fill="#444" font-family="Arial,sans-serif">Wien, 22.</text>
<text x="380" y="262" font-size="8.5" fill="#444" font-family="Arial,sans-serif">€2,200</text>
<text x="435" y="262" font-size="8.5" fill="#444" font-family="Arial,sans-serif">Permanent</text>
<line x1="20" y1="269" x2="520" y2="269" stroke="#eee" stroke-width="1"/>
<rect x="26" y="274" width="20" height="14" rx="3" fill="#fff3cd"/>
<text x="36" y="285" font-size="8" fill="#856404" font-family="Arial,sans-serif" text-anchor="middle" font-weight="bold">B</text>
<text x="52" y="285" font-size="8" fill="#888" font-family="Arial,sans-serif">65%</text>
<text x="100" y="285" font-size="8.5" fill="#222" font-family="Arial,sans-serif" font-weight="bold">Kommissionierer</text>
<text x="215" y="285" font-size="8.5" fill="#444" font-family="Arial,sans-serif">Rewe Group</text>
<text x="310" y="285" font-size="8.5" fill="#444" font-family="Arial,sans-serif">Wien, 23.</text>
<text x="380" y="285" font-size="8.5" fill="#444" font-family="Arial,sans-serif">€1,980</text>
<text x="435" y="285" font-size="8.5" fill="#444" font-family="Arial,sans-serif">Permanent</text>
<line x1="20" y1="292" x2="520" y2="292" stroke="#eee" stroke-width="1"/>
<rect x="26" y="297" width="20" height="14" rx="3" fill="#fff3cd"/>
<text x="36" y="308" font-size="8" fill="#856404" font-family="Arial,sans-serif" text-anchor="middle" font-weight="bold">B</text>
<text x="52" y="308" font-size="8" fill="#888" font-family="Arial,sans-serif">58%</text>
<text x="100" y="308" font-size="8.5" fill="#222" font-family="Arial,sans-serif" font-weight="bold">Produktionsmitarbeiter</text>
<text x="215" y="308" font-size="8.5" fill="#444" font-family="Arial,sans-serif">Mondelez AT</text>
<text x="310" y="308" font-size="8.5" fill="#444" font-family="Arial,sans-serif">Wien, 21.</text>
<text x="380" y="308" font-size="8.5" fill="#444" font-family="Arial,sans-serif">€2,050</text>
<text x="435" y="308" font-size="8.5" fill="#444" font-family="Arial,sans-serif">Temporary</text>
<line x1="20" y1="315" x2="520" y2="315" stroke="#eee" stroke-width="1"/>
<rect x="26" y="320" width="20" height="14" rx="3" fill="#f0f0ec"/>
<text x="36" y="331" font-size="8" fill="#888" font-family="Arial,sans-serif" text-anchor="middle" font-weight="bold">C</text>
<text x="52" y="331" font-size="8" fill="#aaa" font-family="Arial,sans-serif">44%</text>
<text x="100" y="331" font-size="8.5" fill="#aaa" font-family="Arial,sans-serif">Reinigungskraft</text>
<text x="215" y="331" font-size="8.5" fill="#aaa" font-family="Arial,sans-serif">ISS Austria</text>
<text x="310" y="331" font-size="8.5" fill="#aaa" font-family="Arial,sans-serif">Wien, 1.</text>
<text x="380" y="331" font-size="8.5" fill="#aaa" font-family="Arial,sans-serif">€1,750</text>
<text x="435" y="331" font-size="8.5" fill="#aaa" font-family="Arial,sans-serif">Permanent</text>
<line x1="20" y1="338" x2="520" y2="338" stroke="#eee" stroke-width="1"/>
<line x1="20" y1="361" x2="520" y2="361" stroke="#f0f0ee" stroke-width="1"/>
<line x1="20" y1="384" x2="520" y2="384" stroke="#f0f0ee" stroke-width="1"/>
<line x1="20" y1="407" x2="520" y2="407" stroke="#f0f0ee" stroke-width="1"/>
<line x1="20" y1="430" x2="520" y2="430" stroke="#f0f0ee" stroke-width="1"/>
<line x1="20" y1="453" x2="520" y2="453" stroke="#f0f0ee" stroke-width="1"/>
<rect x="26" y="344" width="20" height="14" rx="3" fill="#f0f0ec" opacity="0.5"/>
<rect x="26" y="367" width="20" height="14" rx="3" fill="#f0f0ec" opacity="0.4"/>
<rect x="26" y="390" width="20" height="14" rx="3" fill="#f0f0ec" opacity="0.3"/>

<!-- CALLOUT LINES AND BUBBLES -->
<line x1="205" y1="39" x2="556" y2="39" stroke="#888" stroke-width="1" marker-end="url(#arr)" stroke-dasharray="3,2"/>
<circle cx="562" cy="39" r="9" fill="#333"/>
<text x="562" y="43" font-size="9" fill="#fff" font-family="Arial,sans-serif" text-anchor="middle" font-weight="bold">1</text>
<text x="578" y="36" font-size="9" fill="#222" font-family="Arial,sans-serif" font-weight="bold">Navigation bar</text>
<text x="578" y="47" font-size="8.5" fill="#666" font-family="Arial,sans-serif">App logo + 3 main tabs</text>

<line x1="310" y1="80" x2="556" y2="80" stroke="#888" stroke-width="1" marker-end="url(#arr)" stroke-dasharray="3,2"/>
<circle cx="562" cy="80" r="9" fill="#333"/>
<text x="562" y="84" font-size="9" fill="#fff" font-family="Arial,sans-serif" text-anchor="middle" font-weight="bold">2</text>
<text x="578" y="77" font-size="9" fill="#222" font-family="Arial,sans-serif" font-weight="bold">Filter bar</text>
<text x="578" y="88" font-size="8.5" fill="#666" font-family="Arial,sans-serif">Region, job criteria, company</text>

<line x1="192" y1="127" x2="556" y2="127" stroke="#888" stroke-width="1" marker-end="url(#arr)" stroke-dasharray="3,2"/>
<circle cx="562" cy="127" r="9" fill="#333"/>
<text x="562" y="131" font-size="9" fill="#fff" font-family="Arial,sans-serif" text-anchor="middle" font-weight="bold">3</text>
<text x="578" y="124" font-size="9" fill="#222" font-family="Arial,sans-serif" font-weight="bold">Input mode selector</text>
<text x="578" y="135" font-size="8.5" fill="#666" font-family="Arial,sans-serif">CV / free-text / guided query</text>

<line x1="410" y1="158" x2="556" y2="158" stroke="#888" stroke-width="1" marker-end="url(#arr)" stroke-dasharray="3,2"/>
<circle cx="562" cy="158" r="9" fill="#333"/>
<text x="562" y="162" font-size="9" fill="#fff" font-family="Arial,sans-serif" text-anchor="middle" font-weight="bold">4</text>
<text x="578" y="155" font-size="9" fill="#222" font-family="Arial,sans-serif" font-weight="bold">Candidate input zone</text>
<text x="578" y="166" font-size="8.5" fill="#666" font-family="Arial,sans-serif">Upload, paste or type profile</text>

<line x1="460" y1="191" x2="556" y2="191" stroke="#888" stroke-width="1" marker-end="url(#arr)" stroke-dasharray="3,2"/>
<circle cx="562" cy="191" r="9" fill="#333"/>
<text x="562" y="195" font-size="9" fill="#fff" font-family="Arial,sans-serif" text-anchor="middle" font-weight="bold">5</text>
<text x="578" y="188" font-size="9" fill="#222" font-family="Arial,sans-serif" font-weight="bold">Run + export controls</text>
<text x="578" y="199" font-size="8.5" fill="#666" font-family="Arial,sans-serif">Trigger search, set N, export</text>

<line x1="520" y1="300" x2="556" y2="260" stroke="#888" stroke-width="1" marker-end="url(#arr)" stroke-dasharray="3,2"/>
<circle cx="562" cy="252" r="9" fill="#333"/>
<text x="562" y="256" font-size="9" fill="#fff" font-family="Arial,sans-serif" text-anchor="middle" font-weight="bold">6</text>
<text x="578" y="249" font-size="9" fill="#222" font-family="Arial,sans-serif" font-weight="bold">Results table</text>
<text x="578" y="260" font-size="8.5" fill="#666" font-family="Arial,sans-serif">Jobs ranked by AI score</text>

<line x1="57" y1="338" x2="57" y2="450" stroke="#888" stroke-width="0.5" stroke-dasharray="2,2"/>
<line x1="57" y1="450" x2="556" y2="340" stroke="#888" stroke-width="1" marker-end="url(#arr)" stroke-dasharray="3,2"/>
<circle cx="562" cy="332" r="9" fill="#333"/>
<text x="562" y="336" font-size="9" fill="#fff" font-family="Arial,sans-serif" text-anchor="middle" font-weight="bold">7</text>
<text x="578" y="329" font-size="9" fill="#222" font-family="Arial,sans-serif" font-weight="bold">Score column</text>
<text x="578" y="340" font-size="8.5" fill="#666" font-family="Arial,sans-serif">Percentage + grade (A / B / C)</text>

<!-- Caption -->
<text x="270" y="510" font-size="10" fill="#aaa" font-family="Arial,sans-serif" text-anchor="middle">Fig. 1 — Search tab layout (illustrative wireframe)</text>
</svg>
